<?xml version="1.0" encoding="utf-8"?>
<!-- Generator: Adobe Illustrator 26.0.2, SVG Export Plug-In . SVG Version: 6.00 Build 0)  -->
<svg version="1.1" id="Layer_1" xmlns="http://www.w3.org/2000/svg" xmlns:xlink="http://www.w3.org/1999/xlink" x="0px" y="0px"
	 viewBox="0 0 1024 1024" style="enable-background:new 0 0 1024 1024;" xml:space="preserve">
<style type="text/css">
	.st0{fill:url(#SVGID_1_);}
	.st1{fill:#E2E8F0;}
	.st2{fill-rule:evenodd;clip-rule:evenodd;fill:#E2E8F0;}
	.st3{fill:none;stroke:#E2E8F0;stroke-width:8;stroke-miterlimit:10;}
</style>
<g>
	
		<linearGradient id="SVGID_1_" gradientUnits="userSpaceOnUse" x1="512" y1="1018.3684" x2="512" y2="5.6316" gradientTransform="matrix(1 0 0 -1 0 1024)">
		<stop  offset="0" style="stop-color:#007BC7"/>
		<stop  offset="1" style="stop-color:#013C60"/>
	</linearGradient>
	<path class="st0" d="M231.8,5.6h560.4c124.9,0,226.1,101.2,226.1,226.1v560.4c0,124.9-101.2,226.1-226.1,226.1H231.8
		c-124.9,0-226.1-101.2-226.1-226.1V231.8C5.6,106.9,106.9,5.6,231.8,5.6z"/>
</g>
<path class="st1" d="M482.1,239.4h54.1l-18.7,76l0,0.9L340.5,753h-76.9L482.1,239.4z M388.1,551.5H591l22.5,54.5H363.7L388.1,551.5z
	 M517.5,316.2l1.6-76.9h35.4"/>
<g>
	<path class="st2" d="M740.8,762.1c-18.3-15.5-42.1-39.1-61.8-63.8c-4.4-5.5-8.5-11-12.4-16.6c0.6,0.2,1.2,0.6,1.9,0.7
		c0.9,0.2,1.9,0.4,2.9,0.5c2.9,0.3,6.2-0.2,8.8-1.9c3.5-2.4,5.3-5.9,6.1-10.1c0.7-3.9,0.7-8.6,0.2-14.6c0.5,0.7,1.2,1.2,1.7,1.9
		c3.9,5.1,7.8,11,11.6,15.1c1.9,2,3,4.1,8,4.9c2.5,0.4,6.2-1.2,7.6-2.9c1.4-1.8,1.5-3.1,1.7-4.7c1.6-12.9,3.9-20.6,5.8-24
		c5.6-0.2,17.8,14.5,17.8,20C738.6,675.1,729,731.5,740.8,762.1L740.8,762.1z"/>
</g>
<path class="st2" d="M723.6,630.4c-0.3-0.1-0.6-0.3-0.9-0.4c-2.8-0.8-6.7-0.6-9.5,1c-2.8,1.6-4.6,3.9-6.2,6.8
	c-2.5,4.5-4.3,10.7-5.8,19.8c-2.2-2.8-4.7-6.3-7.1-9.5c-2-2.7-4.1-5.1-6-7.3c-2-2.2-3.4-4.1-6.9-5.5c-1.8-0.7-5.1-1-7.6,0.3
	c-2.5,1.3-3.4,3.2-3.9,4.8c-1,3.1-0.8,6.4-0.3,11.3c0.6,6.2,0.5,10.7,0,13.4c-0.3,1.7-0.8,2.5-1,2.8c0,0-0.1,0-0.2,0
	c-1.1-0.3-3.2-1.3-5.3-2.9c-8.7-6.2-19.5-19.6-19.5-19.6c-1.3-1.3-1.8-3.2-2.5-4.6c-6.4-15.6-7.6-28.6-2.9-37.3l61.2-22.3"/>
<g>
	<path class="st3" d="M682,749H537"/>
</g>
<g>
	<path class="st3" d="M680.8,725.1l-65.9,0"/>
</g>
<path class="st1" d="M533.5,336l43.5-96l117.7,323.4l-68.6,23.4L533.5,336z"/>
</svg>
